<svg width="28" height="28" viewBox="0 0 28 28" fill="none" xmlns="http://www.w3.org/2000/svg">
    <circle cx="13.6504" cy="13.6123" r="12.6133" fill="white" stroke="#DD0000" stroke-width="2"/>
    <path d="M13.6514 5.73584C14.0877 5.73606 14.4412 6.09058 14.4414 6.52686V13.022H20.7363C21.0625 13.022 21.3271 13.2866 21.3271 13.6128C21.3271 13.9389 21.0625 14.2036 20.7363 14.2036H14.4414V20.6978C14.4414 21.1342 14.0878 21.4885 13.6514 21.4888C13.2147 21.4888 12.8604 21.1344 12.8604 20.6978V14.2036H6.56543C6.23927 14.2036 5.97462 13.9389 5.97461 13.6128C5.97461 13.2866 6.23926 13.022 6.56543 13.022H12.8604V6.52686C12.8606 6.09044 13.2149 5.73584 13.6514 5.73584ZM14.2227 20.8384C14.2244 20.8313 14.228 20.8241 14.2295 20.8169L14.2314 20.7896C14.2286 20.8059 14.2266 20.8224 14.2227 20.8384ZM14.2412 14.2036V20.6987C14.2412 20.7063 14.2396 20.7137 14.2393 20.7212L14.2422 20.6978V14.2036H14.2412ZM14.2412 6.52686V13.022H14.2422V6.52686C14.2422 6.48801 14.2367 6.45034 14.2295 6.41357C14.2367 6.4503 14.2412 6.48803 14.2412 6.52686ZM13.7695 5.94873C13.8071 5.95639 13.8433 5.96751 13.8779 5.98193C13.8435 5.96758 13.8078 5.95541 13.7705 5.94775L13.6514 5.93604L13.7695 5.94873ZM13.0723 20.8169C13.073 20.8204 13.0744 20.8242 13.0752 20.8276C13.0663 20.7879 13.061 20.7469 13.0605 20.7046L13.0723 20.8169Z" fill="#E30000"/>
</svg>
