<svg width="19" height="19" viewBox="0 0 19 19" fill="none" xmlns="http://www.w3.org/2000/svg">
    <path fill-rule="evenodd" clip-rule="evenodd" d="M18.1149 7.72844L10.6149 0.652188C10.6113 0.648989 10.6078 0.645543 10.6046 0.641875C10.0324 0.121501 9.15837 0.121501 8.58617 0.641875L8.57586 0.652188L1.0843 7.72844C0.775339 8.01254 0.599546 8.41309 0.599609 8.83281V17.5C0.599609 18.3284 1.27118 19 2.09961 19H6.59961C7.42804 19 8.09961 18.3284 8.09961 17.5V13H11.0996V17.5C11.0996 18.3284 11.7712 19 12.5996 19H17.0996C17.928 19 18.5996 18.3284 18.5996 17.5V8.83281C18.5997 8.41309 18.4239 8.01254 18.1149 7.72844V7.72844ZM17.0996 17.5H12.5996V13C12.5996 12.1716 11.928 11.5 11.0996 11.5H8.09961C7.27118 11.5 6.59961 12.1716 6.59961 13V17.5H2.09961V8.83281L2.10992 8.82344L9.59961 1.75L17.0902 8.82156L17.1005 8.83094L17.0996 17.5Z" fill="#994D52"/>
</svg>
