<svg width="18" height="18" viewBox="0 0 18 18" fill="none" xmlns="http://www.w3.org/2000/svg">
    <path fill-rule="evenodd" clip-rule="evenodd" d="M6.5498 0.75H2.0498C1.22138 0.75 0.549805 1.42157 0.549805 2.25V6.75C0.549805 7.57843 1.22138 8.25 2.0498 8.25H6.5498C7.37823 8.25 8.0498 7.57843 8.0498 6.75V2.25C8.0498 1.42157 7.37823 0.75 6.5498 0.75V0.75ZM6.5498 6.75H2.0498V2.25H6.5498V6.75V6.75ZM15.5498 0.75H11.0498C10.2214 0.75 9.5498 1.42157 9.5498 2.25V6.75C9.5498 7.57843 10.2214 8.25 11.0498 8.25H15.5498C16.3782 8.25 17.0498 7.57843 17.0498 6.75V2.25C17.0498 1.42157 16.3782 0.75 15.5498 0.75V0.75ZM15.5498 6.75H11.0498V2.25H15.5498V6.75V6.75ZM6.5498 9.75H2.0498C1.22138 9.75 0.549805 10.4216 0.549805 11.25V15.75C0.549805 16.5784 1.22138 17.25 2.0498 17.25H6.5498C7.37823 17.25 8.0498 16.5784 8.0498 15.75V11.25C8.0498 10.4216 7.37823 9.75 6.5498 9.75V9.75ZM6.5498 15.75H2.0498V11.25H6.5498V15.75V15.75ZM15.5498 9.75H11.0498C10.2214 9.75 9.5498 10.4216 9.5498 11.25V15.75C9.5498 16.5784 10.2214 17.25 11.0498 17.25H15.5498C16.3782 17.25 17.0498 16.5784 17.0498 15.75V11.25C17.0498 10.4216 16.3782 9.75 15.5498 9.75V9.75ZM15.5498 15.75H11.0498V11.25H15.5498V15.75V15.75Z" fill="#994D52"/>
</svg>
